<svg id="Layer_1" data-name="Layer 1" xmlns="http://www.w3.org/2000/svg" xmlns:xlink="http://www.w3.org/1999/xlink" viewBox="0 0 130.11 129.8"><defs><clipPath id="clip-path" transform="translate(5.06 4.73)"><path d="M58.87,99.1L28.25,114.57c-2.2,1.11-3,.55-2.8-1.9l3.11-33.86,0.09-1L28,77,5.88,49.82c-1.63-2-1.13-3.5,1.38-4.13l32.52-8.09,1-.26,0.53-.93L58.21,6.89c1.23-2.15,2.36-2.15,3.59,0L78.65,36.41l0.53,0.93,1,0.26,32.52,8.09c2.51,0.63,3,2.13,1.38,4.13L92,77l-0.64.79,0.09,1,3.11,33.86c0.22,2.44-.61,3-2.8,1.9L61.13,99.1,60,98.53l-1.13.57m0,4.46L89.49,119c5.7,2.88,10.62-.46,10-6.82L96.42,78.36l-0.55,1.81L118,53c3.95-4.85,2-10.63-4.05-12.14L81.42,32.74,83,33.93,66.14,4.41C63-1.1,57-1.1,53.86,4.41L37,33.93l1.57-1.19L6.06,40.83C0,42.35-1.94,48.13,2,53L24.13,80.16l-0.55-1.81-3.11,33.86c-0.58,6.36,4.33,9.69,10,6.82l30.62-15.47H58.87Z" style="fill:none"/></clipPath><clipPath id="clip-path-2" transform="translate(5.06 4.73)"><rect width="120" height="120" style="fill:none"/></clipPath><clipPath id="clip-path-3" transform="translate(5.06 4.73)"><rect x="68.89" y="48.59" width="5" height="10.84" style="fill:none"/></clipPath><clipPath id="clip-path-5" transform="translate(5.06 4.73)"><rect x="48.18" y="48.59" width="5" height="10.84" style="fill:none"/></clipPath><clipPath id="clip-path-7" transform="translate(5.06 4.73)"><path d="M37.87,68.58a11.37,11.37,0,0,0,1.21,3.1,20,20,0,0,0,5.14,6c6.91,5.55,18.11,8.62,34.5,8.12l-0.15-5c-15.27.47-25.31-2.28-31.21-7a15,15,0,0,1-3.88-4.48,6.93,6.93,0,0,1-.7-1.66Z" style="fill:none"/></clipPath></defs><title>icon--star</title><g style="clip-path:url(#clip-path)"><g style="clip-path:url(#clip-path-2)"><rect width="130.11" height="129.8" style="fill:#15b28a"/></g></g><g style="clip-path:url(#clip-path-3)"><g style="clip-path:url(#clip-path-2)"><rect x="68.95" y="48.32" width="15" height="20.84" style="fill:#15b28a"/></g></g><g style="clip-path:url(#clip-path-5)"><g style="clip-path:url(#clip-path-2)"><rect x="48.24" y="48.32" width="15" height="20.84" style="fill:#15b28a"/></g></g><g style="clip-path:url(#clip-path-7)"><g style="clip-path:url(#clip-path-2)"><rect x="37.92" y="67.37" width="50.85" height="28.2" style="fill:#15b28a"/></g></g></svg>