<svg id="Layer_1" data-name="Layer 1" xmlns="http://www.w3.org/2000/svg" xmlns:xlink="http://www.w3.org/1999/xlink" viewBox="0 0 129.26 133.88"><defs><clipPath id="clip-path" transform="translate(5.48 5.1)"><path d="M47.53,55.83l-0.65,0-0.58.3L46.5,56,46,56.19l-1.31.42c-1.43.43-3,.87-4.73,1.28a63.43,63.43,0,0,1-13.22,1.84C20.07,59.86,15,58.44,12,55.31,2.52,45.22,1.87,21.84,11,12.13,16.48,6.37,28.37,4.4,42,5h0.14c17.21-.16,33.07,2.53,45.59,9.07,16.18,8.45,25.43,22.68,26,44.07C114.59,88,102.61,104.65,82,111.61a73.49,73.49,0,0,1-29.75,3.16c-0.73-.07-1.38-0.14-1.94-0.21l-0.64-.09,0.11,4.92A30.22,30.22,0,0,0,54.27,118a40.48,40.48,0,0,0,9.69-5.4C73.59,105.28,79,94.28,78.08,79.11,77.11,63.43,65.43,56.38,47.53,55.83Zm-0.15,5c15.64,0.48,24.94,6.1,25.72,18.6,0.84,13.44-3.82,22.84-12.14,29.14a35.52,35.52,0,0,1-8.5,4.73c-1,.39-1.94.71-2.78,0.94-0.48.14-.81,0.22-1,0.25l-13.31,2.77,13.42,2.15c0.55,0.09,1.54.22,2.91,0.34a78.28,78.28,0,0,0,31.8-3.4c22.71-7.65,36.09-26.26,35.18-58.33-0.66-23.24-11-39.09-28.72-48.37-13.38-7-30-9.8-48-9.63h0.14c-15-.68-28,1.48-34.79,8.68-11,11.69-10.3,38.08,1,50,4.12,4.36,10.49,6.14,18.43,6a68.24,68.24,0,0,0,14.28-2c1.81-.43,3.5-0.89,5-1.36l1.43-.45,0.53-.18a3.44,3.44,0,0,0,.5-0.21l-1.15-2.22Z" style="fill:none"/></clipPath><clipPath id="clip-path-2" transform="translate(5.48 5.1)"><rect x="-0.77" y="-0.06" width="120" height="120" style="fill:none"/></clipPath><clipPath id="clip-path-3" transform="translate(5.48 5.1)"><path d="M28.91,20.57h-5V32.06h5V20.57Zm-5,0V32.06h5V20.57h-5Z" style="fill:none"/></clipPath><clipPath id="clip-path-5" transform="translate(5.48 5.1)"><path d="M35.76,40a8.37,8.37,0,0,1-.55,1.73,14.21,14.21,0,0,1-2.88,4.35C28,50.58,20.77,53.17,9.58,52.72l-0.2,5c12.56,0.5,21.23-2.59,26.56-8.16a19.19,19.19,0,0,0,3.89-5.88,12.9,12.9,0,0,0,.88-2.92Z" style="fill:none"/></clipPath><clipPath id="clip-path-7" transform="translate(5.48 5.1)"><path d="M49.55,60.31c0.16-.17.43-0.47,0.8-0.91,0.61-.71,1.3-1.54,2-2.47a87.21,87.21,0,0,0,6.12-8.84c6.78-11.22,10.27-22.63,8.6-33.48A32.89,32.89,0,0,0,61.9,1.26L57.74,4a27.89,27.89,0,0,1,4.43,11.35c1.45,9.47-1.71,19.82-7.94,30.13a82.25,82.25,0,0,1-5.77,8.33c-0.69.87-1.32,1.64-1.89,2.3l-0.68.77Z" style="fill:none"/></clipPath><clipPath id="clip-path-9" transform="translate(5.48 5.1)"><path d="M70.68,68.35c0.32-.1.9-0.29,1.7-0.57,1.31-.46,2.76-1,4.33-1.68a82.27,82.27,0,0,0,13.12-6.93c12.7-8.33,20.23-18.93,19.6-32l-5,.24C105,38.37,98.46,47.52,87.09,55a77.35,77.35,0,0,1-12.32,6.5c-1.47.62-2.84,1.15-4.06,1.58l-1.12.38-0.36.12Z" style="fill:none"/></clipPath><clipPath id="clip-path-11" transform="translate(5.48 5.1)"><path d="M72.93,92.67c0.35,0.32,1,.84,1.85,1.49a45.4,45.4,0,0,0,4.8,3.16c7.27,4.16,14.8,5.92,22,3.78a22.72,22.72,0,0,0,8.65-4.91l-3.32-3.74a17.73,17.73,0,0,1-6.76,3.86C94.5,98,88.26,96.52,82.06,93a40.43,40.43,0,0,1-4.27-2.81c-0.44-.33-0.83-0.64-1.15-0.91l-0.36-.31Z" style="fill:none"/></clipPath><clipPath id="clip-path-13" transform="translate(5.48 5.1)"><path d="M56.13,84.92a22.94,22.94,0,0,0,2.66-.63,27.59,27.59,0,0,0,5.7-2.36c5.68-3.17,9.11-8,8.8-14.71l-5,.23c0.21,4.55-2.08,7.79-6.25,10.12a22.66,22.66,0,0,1-4.67,1.93c-0.56.16-1.08,0.29-1.54,0.39l-0.51.1Z" style="fill:none"/></clipPath><clipPath id="clip-path-15" transform="translate(5.48 5.1)"><path d="M43.63,77.5a22.94,22.94,0,0,0,2.66-.63A27.59,27.59,0,0,0,52,74.51c5.68-3.17,9.11-8,8.8-14.71l-5,.23c0.21,4.55-2.08,7.79-6.25,10.12a22.66,22.66,0,0,1-4.67,1.93c-0.56.16-1.08,0.29-1.54,0.39l-0.51.1Z" style="fill:none"/></clipPath><clipPath id="clip-path-17" transform="translate(5.48 5.1)"><path d="M36.93,112.74a4.62,4.62,0,0,1,4.61-8A15.91,15.91,0,0,1,46,109.41c1.25,1.95,1.64,3.5,1.34,4s-1.83,1-4.15.84A15.91,15.91,0,0,1,36.93,112.74Zm-2.5,4.33c5.12,3,14.6,3.41,17.23-1.15s-2.51-12.54-7.62-15.5A9.61,9.61,0,0,0,34.43,117.07Z" style="fill:none"/></clipPath><clipPath id="clip-path-19" transform="translate(5.48 5.1)"><path d="M48.61,100a4.62,4.62,0,0,1,9.22,0,15.91,15.91,0,0,1-1.8,6.18c-1.06,2.06-2.21,3.17-2.8,3.17s-1.74-1.11-2.8-3.17A15.91,15.91,0,0,1,48.61,100Zm-5,0c0,5.91,4.35,14.35,9.61,14.35s9.61-8.44,9.61-14.35A9.61,9.61,0,0,0,43.61,100Z" style="fill:none"/></clipPath></defs><title>icon--shrimp</title><g style="clip-path:url(#clip-path)"><g style="clip-path:url(#clip-path-2)"><rect width="129.26" height="130.21" style="fill:#15b28a"/></g></g><g style="clip-path:url(#clip-path-3)"><g style="clip-path:url(#clip-path-2)"><rect x="24.39" y="20.68" width="15" height="21.49" style="fill:#15b28a"/></g></g><g style="clip-path:url(#clip-path-5)"><g style="clip-path:url(#clip-path-2)"><rect x="9.86" y="40.13" width="41.33" height="27.75" style="fill:#15b28a"/></g></g><g style="clip-path:url(#clip-path-7)"><g style="clip-path:url(#clip-path-2)"><rect x="46.37" y="1.36" width="31.63" height="69.06" style="fill:#15b28a"/></g></g><g style="clip-path:url(#clip-path-9)"><g style="clip-path:url(#clip-path-2)"><rect x="69.71" y="27.31" width="50.23" height="51.14" style="fill:#15b28a"/></g></g><g style="clip-path:url(#clip-path-11)"><g style="clip-path:url(#clip-path-2)"><rect x="73.41" y="89.05" width="47.3" height="23.06" style="fill:#15b28a"/></g></g><g style="clip-path:url(#clip-path-13)"><g style="clip-path:url(#clip-path-2)"><rect x="55.82" y="67.32" width="27.97" height="27.71" style="fill:#15b28a"/></g></g><g style="clip-path:url(#clip-path-15)"><g style="clip-path:url(#clip-path-2)"><rect x="43.32" y="59.9" width="27.97" height="27.71" style="fill:#15b28a"/></g></g><g style="clip-path:url(#clip-path-17)"><g style="clip-path:url(#clip-path-2)"><rect x="25.06" y="93.96" width="31.3" height="31.3" transform="translate(-21.5 19.38) rotate(-15)" style="fill:#15b28a"/></g></g><g style="clip-path:url(#clip-path-19)"><g style="clip-path:url(#clip-path-2)"><rect x="39.06" y="85.64" width="29.37" height="33.33" transform="matrix(0.97, -0.26, 0.26, 0.97, -19.17, 22.5)" style="fill:#15b28a"/></g></g></svg>