<svg id="Layer_1" data-name="Layer 1" xmlns="http://www.w3.org/2000/svg" xmlns:xlink="http://www.w3.org/1999/xlink" viewBox="0 0 120 120"><defs><clipPath id="clip-path"><path d="M48.12,53.28L47.47,51.6v55.74l0.84-1.87-12,10.67-4.91,4.37H89.54l-4.91-4.37-13-11.56,0.84,1.87V51.37L71.77,53.1C82.85,41.49,92.65,30.56,99.55,21.76c4.4-5.61,7.42-10.13,8.89-13.46,0.95-2.15,1.33-3.92,1-5.47C108.86,0.64,107-.5,104.62-0.5h-90a3.87,3.87,0,0,0-4.16,3.83A11,11,0,0,0,12,8.46a92.51,92.51,0,0,0,9.14,13.43C28,30.72,37.51,41.67,48.12,53.28Zm3.69-3.37c-10.53-11.52-20-22.39-26.74-31.09A88.92,88.92,0,0,1,16.45,6.21a7.9,7.9,0,0,1-1-2.68,1.31,1.31,0,0,1-.84,1h90c0.25,0,.33,0,0.28,0A0.88,0.88,0,0,1,104.53,4a1.93,1.93,0,0,1-.06.55,9.28,9.28,0,0,1-.6,1.72c-1.26,2.86-4.1,7.09-8.26,12.4-6.77,8.64-16.48,19.46-27.45,31l-0.69.72v57.2l0.84,0.75,13,11.56L83,115.5H38l1.66,4.37,12-10.67,0.84-.75V50.63Z" style="fill:none"/></clipPath><clipPath id="clip-path-2"><rect x="-0.38" width="120" height="120" style="fill:none"/></clipPath><clipPath id="clip-path-3"><path d="M87.1,21.79a16.57,16.57,0,0,0-2.13-2,23.42,23.42,0,0,0-5.85-3.46c-6.35-2.61-13.68-2.47-21.7,1.44l2.19,4.49c6.72-3.28,12.55-3.39,17.6-1.31a18.46,18.46,0,0,1,4.6,2.72,15,15,0,0,1,1.15,1L83.28,25Z" style="fill:none"/></clipPath><clipPath id="clip-path-5"><path d="M29.94,18.22a16.58,16.58,0,0,0,2.13,2,23.42,23.42,0,0,0,5.85,3.46c6.35,2.61,13.68,2.47,21.7-1.44l-2.19-4.49c-6.72,3.28-12.55,3.39-17.6,1.31a18.46,18.46,0,0,1-4.6-2.72,15,15,0,0,1-1.15-1L33.75,15Z" style="fill:none"/></clipPath><clipPath id="clip-path-7"><path d="M74.41,34.13A9.36,9.36,0,0,0,73.2,33,12.78,12.78,0,0,0,70,31.08c-3.46-1.42-7.44-1.34-11.71.74l2.19,4.49c3-1.45,5.46-1.5,7.62-.61A7.81,7.81,0,0,1,70,36.85a6.11,6.11,0,0,1,.47.42l0.08,0.08Z" style="fill:none"/></clipPath><clipPath id="clip-path-9"><path d="M44.36,34a9.36,9.36,0,0,0,1.22,1.16,12.78,12.78,0,0,0,3.19,1.89c3.46,1.42,7.44,1.34,11.71-.74l-2.19-4.49c-3,1.45-5.46,1.5-7.62.61a7.81,7.81,0,0,1-1.95-1.15,6.11,6.11,0,0,1-.47-0.42l-0.08-.08Z" style="fill:none"/></clipPath></defs><title>icon--martini</title><g style="clip-path:url(#clip-path)"><g style="clip-path:url(#clip-path-2)"><rect x="5.46" y="-5.5" width="109.07" height="131" style="fill:#15b28a"/></g></g><g style="clip-path:url(#clip-path-3)"><g style="clip-path:url(#clip-path-2)"><rect x="55.08" y="6.4" width="34.9" height="27.87" transform="translate(-1.57 33.85) rotate(-26)" style="fill:#15b28a"/></g></g><g style="clip-path:url(#clip-path-5)"><g style="clip-path:url(#clip-path-2)"><rect x="27.05" y="5.75" width="34.9" height="27.87" transform="translate(-4.12 21.5) rotate(-26)" style="fill:#15b28a"/></g></g><g style="clip-path:url(#clip-path-7)"><g style="clip-path:url(#clip-path-2)"><rect x="54.88" y="23.34" width="23.48" height="20.37" transform="translate(-7.95 32.6) rotate(-26)" style="fill:#15b28a"/></g></g><g style="clip-path:url(#clip-path-9)"><g style="clip-path:url(#clip-path-2)"><rect x="40.41" y="24.42" width="23.48" height="20.37" transform="translate(-9.89 26.36) rotate(-26)" style="fill:#15b28a"/></g></g></svg>