<svg id="Layer_1" data-name="Layer 1" xmlns="http://www.w3.org/2000/svg" xmlns:xlink="http://www.w3.org/1999/xlink" viewBox="0 0 120 120"><defs><clipPath id="clip-path"><path d="M71.55,89.59v-2.5h-12v2.5H62V87.06H49.45V110a10.5,10.5,0,0,0,10.5,10.5h1.1A10.5,10.5,0,0,0,71.55,110V89.59Zm-5,0V110a5.5,5.5,0,0,1-5.5,5.5h-1.1a5.5,5.5,0,0,1-5.5-5.5V89.56L52,92.06h7.57v-2.5H57v2.52H69Z" style="fill:none"/></clipPath><clipPath id="clip-path-2"><rect y="1" width="120" height="120" style="fill:none"/></clipPath><clipPath id="clip-path-3"><path d="M59.55,92v-2.5h-2.5v2.52H90.5V31.6c0-11.94-4.41-20.2-12-25.12A33,33,0,0,0,61.52,1.54L61.45,4h2.5V1.69l-2.33-.16-0.35,0a33.78,33.78,0,0,0-5.54.31A34.09,34.09,0,0,0,46.2,4.48c-9.77,4.41-15.7,13.21-15.7,27.1V92H59.55Zm0-5H33l2.5,2.5v-58C35.5,19.69,40.24,12.65,48.25,9A30.87,30.87,0,0,1,61.09,6.51h0.19L61.45,4h-2.5V6.46l2.42,0.07a28.19,28.19,0,0,1,14.38,4.15c6.18,4,9.74,10.66,9.74,20.91v58l2.5-2.5H59.55v2.5h2.5V87h-2.5Z" style="fill:none"/></clipPath><clipPath id="clip-path-5"><path d="M64.47,15.14H64.2a26.21,26.21,0,0,0-10.78,2.06c-7.06,3.1-11.37,9.34-11.37,19.07V75.43h5V36.25c0-7.69,3.09-12.17,8.38-14.49A21.24,21.24,0,0,1,64,20.12h0.11Z" style="fill:none"/></clipPath></defs><title>icon--popsicle</title><g style="clip-path:url(#clip-path)"><g style="clip-path:url(#clip-path-2)"><rect x="44.45" y="82.06" width="32.1" height="43.44" style="fill:#15b28a"/></g></g><g style="clip-path:url(#clip-path-3)"><g style="clip-path:url(#clip-path-2)"><rect x="25.5" y="-3.5" width="70" height="100.56" style="fill:#15b28a"/></g></g><g style="clip-path:url(#clip-path-5)"><g style="clip-path:url(#clip-path-2)"><rect x="37.05" y="10.11" width="32.42" height="70.32" style="fill:#15b28a"/></g></g></svg>