<svg id="Layer_1" data-name="Layer 1" xmlns="http://www.w3.org/2000/svg" xmlns:xlink="http://www.w3.org/1999/xlink" viewBox="0 0 130.11 129.8"><defs><clipPath id="clip-path" transform="translate(5 5)"><path d="M58.93,98.83L28.31,114.3c-2.2,1.11-3,.55-2.8-1.9l3.11-33.86,0.09-1-0.64-.79L5.94,49.54c-1.63-2-1.13-3.5,1.38-4.13l32.52-8.09,1-.26,0.53-.93L58.26,6.62c1.23-2.15,2.36-2.15,3.59,0L78.7,36.13l0.53,0.93,1,0.26,32.52,8.09c2.51,0.63,3,2.13,1.38,4.13L92,76.73l-0.64.79,0.09,1L94.6,112.4c0.22,2.44-.61,3-2.8,1.9L61.18,98.83l-1.13-.57-1.13.57m0,4.46,30.62,15.47c5.7,2.88,10.62-.46,10-6.82L96.47,78.08l-0.55,1.81L118.05,52.7c3.95-4.85,2-10.63-4.05-12.14L81.48,32.47,83,33.65,66.19,4.14c-3.15-5.52-9.12-5.52-12.27,0L37.07,33.65l1.57-1.19L6.11,40.56C0,42.07-1.89,47.85,2.06,52.7L24.19,79.89l-0.55-1.81-3.11,33.86c-0.58,6.36,4.33,9.69,10,6.82l30.62-15.47H58.93Z" style="fill:none"/></clipPath><clipPath id="clip-path-2" transform="translate(5 5)"><rect x="0.06" y="-0.27" width="120" height="120" style="fill:none"/></clipPath><clipPath id="clip-path-3" transform="translate(5 5)"><rect x="68.95" y="48.32" width="5" height="10.84" style="fill:none"/></clipPath><clipPath id="clip-path-5" transform="translate(5 5)"><rect x="48.24" y="48.32" width="5" height="10.84" style="fill:none"/></clipPath><clipPath id="clip-path-7" transform="translate(5 5)"><path d="M37.92,68.31a11.37,11.37,0,0,0,1.21,3.1,20,20,0,0,0,5.14,6C51.19,83,62.39,86,78.78,85.52l-0.15-5c-15.27.47-25.31-2.28-31.21-7A15,15,0,0,1,43.53,69a6.93,6.93,0,0,1-.7-1.66Z" style="fill:none"/></clipPath></defs><title>icon--star</title><g style="clip-path:url(#clip-path)"><g style="clip-path:url(#clip-path-2)"><rect width="130.11" height="129.8" style="fill:#010101"/></g></g><g style="clip-path:url(#clip-path-3)"><g style="clip-path:url(#clip-path-2)"><rect x="68.95" y="48.32" width="15" height="20.84" style="fill:#010101"/></g></g><g style="clip-path:url(#clip-path-5)"><g style="clip-path:url(#clip-path-2)"><rect x="48.24" y="48.32" width="15" height="20.84" style="fill:#010101"/></g></g><g style="clip-path:url(#clip-path-7)"><g style="clip-path:url(#clip-path-2)"><rect x="37.92" y="67.37" width="50.85" height="28.2" style="fill:#010101"/></g></g></svg>