<svg id="Layer_1" data-name="Layer 1" xmlns="http://www.w3.org/2000/svg" xmlns:xlink="http://www.w3.org/1999/xlink" viewBox="0 0 130 130.75"><defs><clipPath id="clip-path" transform="translate(5 6.5)"><path d="M97.44,61.22l2.49-2.72H21.07l2.49,2.72C24.63,49.32,40.69,39.5,60.5,39.5S96.37,49.32,97.44,61.22Zm5-.45C101.08,45.8,82.59,34.5,60.5,34.5S19.92,45.8,18.58,60.78L18.33,63.5h84.34Z" style="fill:none"/></clipPath><clipPath id="clip-path-2" transform="translate(5 6.5)"><rect y="-1" width="120" height="120" style="fill:none"/></clipPath><clipPath id="clip-path-3" transform="translate(5 6.5)"><path d="M120,61.75v-2.5H0v2.5c0,32.15,26.69,57.5,60,57.5S120,93.9,120,61.75Zm-5,0c0,29.33-24.4,52.5-55,52.5S5,91.08,5,61.75l-2.5,2.5h115Z" style="fill:none"/></clipPath><clipPath id="clip-path-5" transform="translate(5 6.5)"><path d="M65.15,104.13c-17.85-1.07-29.71-7.55-36.88-17.68a38.84,38.84,0,0,1-5.75-12.2,34.65,34.65,0,0,1-.86-4c-0.1-.7-0.15-1.17-0.17-1.39l-5,.29c0,0.37.08,1,.21,1.85a39.62,39.62,0,0,0,1,4.57,43.8,43.8,0,0,0,6.49,13.77C32.24,100.72,45.5,108,64.85,109.12Z" style="fill:none"/></clipPath><clipPath id="clip-path-7" transform="translate(5 6.5)"><path d="M82.21,0.06a8.68,8.68,0,0,0-1.32,1.05A12.36,12.36,0,0,0,78.6,4.05c-1.83,3.25-2.3,7.32-.93,12.1l4.81-1.38c-1-3.5-.69-6.19.48-8.27a7.39,7.39,0,0,1,1.36-1.75,4.32,4.32,0,0,1,.52-0.44Z" style="fill:none"/></clipPath><clipPath id="clip-path-8" transform="translate(5 6.5)"><rect width="120" height="120" style="fill:none"/></clipPath><clipPath id="clip-path-9" transform="translate(5 6.5)"><path d="M77.94,30.87a8.68,8.68,0,0,0,1.32-1.05,12.36,12.36,0,0,0,2.28-2.94c1.83-3.25,2.3-7.32.93-12.1l-4.81,1.38c1,3.5.69,6.19-.48,8.27a7.39,7.39,0,0,1-1.36,1.75,4.33,4.33,0,0,1-.52.44Z" style="fill:none"/></clipPath><clipPath id="clip-path-11" transform="translate(5 6.5)"><path d="M61.21,0.06a8.68,8.68,0,0,0-1.32,1.05A12.36,12.36,0,0,0,57.6,4.05c-1.83,3.25-2.3,7.32-.93,12.1l4.81-1.38c-1-3.5-.69-6.19.48-8.27a7.39,7.39,0,0,1,1.36-1.75,4.32,4.32,0,0,1,.52-0.44Z" style="fill:none"/></clipPath><clipPath id="clip-path-13" transform="translate(5 6.5)"><path d="M56.94,30.87a8.68,8.68,0,0,0,1.32-1.05,12.36,12.36,0,0,0,2.28-2.94c1.83-3.25,2.3-7.32.93-12.1l-4.81,1.38c1,3.5.69,6.19-.48,8.27a7.39,7.39,0,0,1-1.36,1.75,4.33,4.33,0,0,1-.52.44Z" style="fill:none"/></clipPath><clipPath id="clip-path-15" transform="translate(5 6.5)"><path d="M42.14,0.06a8.68,8.68,0,0,0-1.32,1.05,12.36,12.36,0,0,0-2.28,2.94c-1.83,3.25-2.3,7.32-.93,12.1l4.81-1.38c-1-3.5-.69-6.19.48-8.27a7.39,7.39,0,0,1,1.36-1.75,4.32,4.32,0,0,1,.52-0.44Z" style="fill:none"/></clipPath><clipPath id="clip-path-17" transform="translate(5 6.5)"><path d="M37.87,30.87a8.68,8.68,0,0,0,1.32-1.05,12.36,12.36,0,0,0,2.28-2.94c1.83-3.25,2.3-7.32.93-12.1L37.6,16.16c1,3.5.69,6.19-.48,8.27a7.39,7.39,0,0,1-1.36,1.75,4.33,4.33,0,0,1-.52.44Z" style="fill:none"/></clipPath></defs><title>icon--bowl</title><g style="clip-path:url(#clip-path)"><g style="clip-path:url(#clip-path-2)"><rect x="18.33" y="36" width="94.34" height="39" style="fill:#15b28a"/></g></g><g style="clip-path:url(#clip-path-3)"><g style="clip-path:url(#clip-path-2)"><rect y="60.75" width="130" height="70" style="fill:#15b28a"/></g></g><g style="clip-path:url(#clip-path-5)"><g style="clip-path:url(#clip-path-2)"><rect x="16.5" y="70.36" width="58.64" height="50.26" style="fill:#15b28a"/></g></g><g style="clip-path:url(#clip-path-7)"><g style="clip-path:url(#clip-path-8)"><rect x="70.51" y="-4.19" width="20.16" height="24.22" transform="translate(5.94 29.02) rotate(-16)" style="fill:#15b28a"/></g></g><g style="clip-path:url(#clip-path-9)"><g style="clip-path:url(#clip-path-8)"><rect x="69.48" y="10.9" width="20.16" height="24.22" transform="translate(1.74 29.32) rotate(-16)" style="fill:#15b28a"/></g></g><g style="clip-path:url(#clip-path-11)"><g style="clip-path:url(#clip-path-8)"><rect x="49.52" y="-4.19" width="20.16" height="24.22" transform="translate(5.13 23.23) rotate(-16)" style="fill:#15b28a"/></g></g><g style="clip-path:url(#clip-path-13)"><g style="clip-path:url(#clip-path-8)"><rect x="48.48" y="10.9" width="20.16" height="24.22" transform="translate(0.93 23.53) rotate(-16)" style="fill:#15b28a"/></g></g><g style="clip-path:url(#clip-path-15)"><g style="clip-path:url(#clip-path-8)"><rect x="30.44" y="-4.19" width="20.16" height="24.22" transform="translate(4.39 17.97) rotate(-16)" style="fill:#15b28a"/></g></g><g style="clip-path:url(#clip-path-17)"><g style="clip-path:url(#clip-path-8)"><rect x="29.41" y="10.9" width="20.16" height="24.22" transform="translate(0.19 18.27) rotate(-16)" style="fill:#15b28a"/></g></g></svg>