<svg id="Layer_1" data-name="Layer 1" xmlns="http://www.w3.org/2000/svg" xmlns:xlink="http://www.w3.org/1999/xlink" viewBox="0 0 120 120"><defs><clipPath id="clip-path"><path d="M16.25,17.55h-3.1l0.65,3,0.06,0.29,0.19,0.84c0.2,0.91.44,2,.72,3.16,0.79,3.4,1.7,7.18,2.73,11.26,2.93,11.65,6.21,23.29,9.73,34.17C37.71,102.62,47.9,121.5,59,121.5s21.29-18.88,31.77-51.2c3.53-10.88,6.8-22.53,9.73-34.17,1-4.07,1.94-7.86,2.73-11.26,0.28-1.19.52-2.25,0.72-3.16l0.19-.84,0.06-.29,0.65-3H16.25Zm0,5h85.5l-2.44-3-0.06.28-0.18.82c-0.2.9-.44,1.94-0.71,3.12-0.78,3.37-1.68,7.12-2.7,11.16C92.74,46.45,89.5,58,86,68.75,76.45,98.27,66.6,116.5,59,116.5S41.55,98.27,32,68.75C28.5,58,25.26,46.45,22.35,34.9c-1-4-1.92-7.8-2.7-11.16-0.27-1.18-.51-2.22-0.71-3.12l-0.18-.82-0.06-.28Z" style="fill:none"/></clipPath><clipPath id="clip-path-2"><rect y="1" width="120" height="120" style="fill:none"/></clipPath><clipPath id="clip-path-3"><path d="M99.05,0.45H20a10.5,10.5,0,0,0-10.5,10.5v1.1A10.5,10.5,0,0,0,20,22.55h79a10.5,10.5,0,0,0,10.5-10.5v-1.1A10.5,10.5,0,0,0,99.05.45Zm0,5a5.5,5.5,0,0,1,5.5,5.5v1.1a5.5,5.5,0,0,1-5.5,5.5H20a5.5,5.5,0,0,1-5.5-5.5v-1.1A5.5,5.5,0,0,1,20,5.45h79Z" style="fill:none"/></clipPath><clipPath id="clip-path-5"><path d="M44.5,62.5a6,6,0,1,1,6-6A6,6,0,0,1,44.5,62.5Zm0,5a11,11,0,1,0-11-11A11,11,0,0,0,44.5,67.5Z" style="fill:none"/></clipPath><clipPath id="clip-path-7"><path d="M71.5,43.5a6,6,0,1,1,6-6A6,6,0,0,1,71.5,43.5Zm0,5a11,11,0,1,0-11-11A11,11,0,0,0,71.5,48.5Z" style="fill:none"/></clipPath><clipPath id="clip-path-9"><path d="M61.5,90.5a6,6,0,1,1,6-6A6,6,0,0,1,61.5,90.5Zm0,5a11,11,0,1,0-11-11A11,11,0,0,0,61.5,95.5Z" style="fill:none"/></clipPath></defs><title>icon--pizza</title><g style="clip-path:url(#clip-path)"><g style="clip-path:url(#clip-path-2)"><rect x="8.15" y="12.55" width="101.7" height="113.95" style="fill:#15b28a"/></g></g><g style="clip-path:url(#clip-path-3)"><g style="clip-path:url(#clip-path-2)"><rect x="4.55" y="-4.55" width="110" height="32.1" style="fill:#15b28a"/></g></g><g style="clip-path:url(#clip-path-5)"><g style="clip-path:url(#clip-path-2)"><rect x="28.5" y="40.5" width="32" height="32" style="fill:#15b28a"/></g></g><g style="clip-path:url(#clip-path-7)"><g style="clip-path:url(#clip-path-2)"><rect x="55.5" y="21.5" width="32" height="32" style="fill:#15b28a"/></g></g><g style="clip-path:url(#clip-path-9)"><g style="clip-path:url(#clip-path-2)"><rect x="45.5" y="68.5" width="32" height="32" style="fill:#15b28a"/></g></g></svg>