<?xml version="1.0" encoding="UTF-8" standalone="no"?>
<svg width="15px" height="15px" viewBox="0 0 15 15" version="1.1" xmlns="http://www.w3.org/2000/svg" xmlns:xlink="http://www.w3.org/1999/xlink">
    <!-- Generator: Sketch 3.6.1 (26313) - http://www.bohemiancoding.com/sketch -->
    <title>Star 3</title>
    <desc>Created with Sketch.</desc>
    <defs></defs>
    <g id="Mockups" stroke="none" stroke-width="1" fill="none" fill-rule="evenodd">
        <g id="iPhone-6---subcategory-page---top" transform="translate(-295.000000, -362.000000)" stroke="#E7ECEE">
            <g id="Content" transform="translate(0.000000, 249.000000)">
                <g id="Link--subCategory" transform="translate(0.000000, 80.000000)">
                    <g id="Content" transform="translate(20.000000, 20.000000)">
                        <g id="Star-row" transform="translate(229.000000, 13.000000)">
                            <path d="M53.4999501,12.8755822 L49.5060708,14.8979799 C48.995069,15.156738 48.623453,14.9008458 48.6760502,14.3263528 L49.080857,9.90485305 L46.1982232,6.35491787 C45.8350448,5.90766729 45.9880595,5.43346257 46.5524692,5.29263859 L50.7884826,4.23572515 L52.9835615,0.381773179 C53.2687551,-0.118947829 53.7311283,-0.118977391 54.0163387,0.381773179 L56.2114176,4.23572515 L60.447431,5.29263859 C61.006254,5.43206866 61.169558,5.90187602 60.801677,6.35491787 L57.9190431,9.90485305 L58.32385,14.3263528 C58.3764441,14.9008119 57.9996778,15.1541285 57.4938294,14.8979799 L53.4999501,12.8755822 Z" id="Star-3"></path>
                        </g>
                    </g>
                </g>
            </g>
        </g>
    </g>
</svg>