<?xml version="1.0" encoding="UTF-8" standalone="no"?>
<svg width="15px" height="15px" viewBox="0 0 15 15" version="1.1" xmlns="http://www.w3.org/2000/svg" xmlns:xlink="http://www.w3.org/1999/xlink">
    <!-- Generator: Sketch 3.6.1 (26313) - http://www.bohemiancoding.com/sketch -->
    <title>Star 1</title>
    <desc>Created with Sketch.</desc>
    <defs></defs>
    <g id="Mockups" stroke="none" stroke-width="1" fill="none" fill-rule="evenodd">
        <g id="iPhone-6---subcategory-page---top" transform="translate(-249.000000, -282.000000)" fill="#6C797A">
            <g id="Content" transform="translate(0.000000, 249.000000)">
                <g id="Link--subCategory">
                    <g id="Content" transform="translate(20.000000, 30.000000)">
                        <g id="Star-row" transform="translate(229.000000, 3.000000)">
                            <path d="M7.4999501,12.8755822 L3.50607082,14.8979799 C2.99506896,15.156738 2.62345297,14.9008458 2.67605021,14.3263528 L3.08085705,9.90485305 L0.198223174,6.35491787 C-0.164955197,5.90766729 -0.0119405272,5.43346257 0.552469217,5.29263859 L4.78848258,4.23572515 L6.98356154,0.381773179 C7.26875506,-0.118947829 7.73112829,-0.118977391 8.01633865,0.381773179 L10.2114176,4.23572515 L14.447431,5.29263859 C15.006254,5.43206866 15.169558,5.90187602 14.801677,6.35491787 L11.9190431,9.90485305 L12.32385,14.3263528 C12.3764441,14.9008119 11.9996778,15.1541285 11.4938294,14.8979799 L7.4999501,12.8755822 Z" id="Star-1"></path>
                        </g>
                    </g>
                </g>
            </g>
        </g>
    </g>
</svg>