<svg id="Layer_1" data-name="Layer 1" xmlns="http://www.w3.org/2000/svg" xmlns:xlink="http://www.w3.org/1999/xlink" viewBox="0 0 120 120"><defs><clipPath id="clip-path"><path d="M46.42,74.54l-1-1,6.36,19.55c1.18,3.64,4.69,4.3,7.15,1.34L72.1,78.71l-1,.54,21-2.23c3.74-.4,5.39-3.68,3.46-6.89L85.22,52.91l0.16,1.17,5.46-19.72c1-3.69-1.51-6.21-5.19-5.19L65.92,34.62l1.17,0.16L49.88,24.47c-3.21-1.92-6.5-.28-6.89,3.46l-2.23,21,0.54-1L25.53,61c-3,2.47-2.3,6,1.34,7.15Zm1-2.86L27.82,65.32c-1.4-.46-1.51-1-0.38-2L43.2,50.2l0.47-.39,0.07-.61,2.23-21c0.16-1.55,1-2,2.35-1.18L65.53,37.36l0.55,0.33,0.62-.17,19.72-5.46c1.44-.4,1.92.08,1.52,1.52L82.48,53.3l-0.17.62,0.33,0.55L92.95,71.68c0.8,1.33.37,2.18-1.18,2.35l-21,2.23-0.61.07-0.39.47L56.67,92.56c-0.95,1.14-1.54,1-2-.38L48.32,72.63l-0.23-.72Z" style="fill:none"/></clipPath><clipPath id="clip-path-2"><rect x="3.81" y="-4.81" width="120" height="120" style="fill:none"/></clipPath><clipPath id="clip-path-3"><path d="M75.27,56.49l-2.12-2.12L68.53,59l2.12,2.12Zm-2.12-2.12L68.53,59l2.12,2.12,4.63-4.63Z" style="fill:none"/></clipPath><clipPath id="clip-path-5"><path d="M66.51,47.72l-2.12-2.12-4.63,4.63,2.12,2.12Zm-2.12-2.12-4.63,4.63,2.12,2.12,4.63-4.63Z" style="fill:none"/></clipPath><clipPath id="clip-path-7"><path d="M51.5,49.77a6.89,6.89,0,0,0-.81,1.84,12,12,0,0,0-.38,4.73c0.56,5.29,4,11.34,11.13,18.06l2.07-2.2C56.85,65.94,53.77,60.52,53.3,56a9,9,0,0,1,.27-3.55,4.2,4.2,0,0,1,.41-1Z" style="fill:none"/></clipPath></defs><title>pattern--star</title><g style="clip-path:url(#clip-path)"><g style="clip-path:url(#clip-path-2)"><rect x="23.31" y="14.61" width="82.28" height="81.87" transform="translate(-20.4 61.84) rotate(-45)" style="fill:#010101"/></g></g><g style="clip-path:url(#clip-path-3)"><g style="clip-path:url(#clip-path-2)"><rect x="63.63" y="51.25" width="16.54" height="12.99" transform="translate(-19.77 67.75) rotate(-45)" style="fill:#010101"/></g></g><g style="clip-path:url(#clip-path-5)"><g style="clip-path:url(#clip-path-2)"><rect x="54.86" y="42.48" width="16.54" height="12.99" transform="translate(-16.14 58.99) rotate(-45)" style="fill:#010101"/></g></g><g style="clip-path:url(#clip-path-7)"><g style="clip-path:url(#clip-path-2)"><rect x="46.17" y="44.67" width="20.98" height="34.45" transform="translate(-27.17 58.19) rotate(-45)" style="fill:#010101"/></g></g></svg>