<svg id="Layer_1" data-name="Layer 1" xmlns="http://www.w3.org/2000/svg" xmlns:xlink="http://www.w3.org/1999/xlink" viewBox="0 0 120 120"><defs><clipPath id="clip-path"><path d="M50.69,78.8l1.06-1.06-1.07-1.07-4.09-4.09-1.06,1.06,1.07,1.07h0l1.06-1.06L46.6,72.57l-3.25-3.25-1.07-1.07-1.06,1.06L32.55,78a6.34,6.34,0,0,0,0,9l0.47,0.47a6.33,6.33,0,0,0,9,0Zm-2.14-2.14-8.66,8.66a3.32,3.32,0,0,1-4.69,0l-0.47-.47a3.32,3.32,0,0,1,0-4.69l8.67-8.67H41.23l3.25,3.25,1.06-1.06-1.07-1.07h0l-1.06,1.06,1.07,1.07,4.09,4.09V76.66Z" style="fill:none"/></clipPath><clipPath id="clip-path-2"><rect x="-2.42" y="1.93" width="120" height="120" style="fill:none"/></clipPath><clipPath id="clip-path-3"><path d="M44.5,74.69l1.06-1.06-1.07-1.07h0l-1.06,1.06,1.07,1.07,12.2,12.2L57.77,88l1.06-1.06L83.42,62.33c5.07-5.07,6.68-10.46,5.49-15.82a20.16,20.16,0,0,0-5.17-9.36l-1.09,1,1.07,1.07h0l1-1-0.93-1.07L83.64,37a22,22,0,0,0-7.72-5.21c-6.06-2.32-12.34-1.13-18.23,4.77L33.1,61.17,32,62.23l1.07,1.07Zm2.12-2.12L35.24,61.18v2.13L59.84,38.73c5-5,10.07-6,15-4.1a18.91,18.91,0,0,1,6.58,4.44l0.08,0.09,1.13-1-1.07-1.07h0l-1,1,1,1.07A17.24,17.24,0,0,1,86,47.13c1,4.34-.34,8.7-4.69,13.05L56.68,84.77h2.13l-12.2-12.2-1.06,1.06,1.07,1.07h0l1.06-1.06Z" style="fill:none"/></clipPath><clipPath id="clip-path-5"><path d="M79.24,44.18l-0.11-.12a16.05,16.05,0,0,0-5.5-3.75c-4.34-1.71-8.84-.92-13,3.21L44,60.14l2.14,2.14L62.81,45.67c3.26-3.26,6.49-3.84,9.74-2.55a13,13,0,0,1,4.39,3l0,0Z" style="fill:none"/></clipPath></defs><title>pattern--popsicle</title><g style="clip-path:url(#clip-path)"><g style="clip-path:url(#clip-path-2)"><rect x="24.9" y="68.38" width="30.06" height="23.4" transform="translate(-44.93 51.69) rotate(-45)" style="fill:#010101"/></g></g><g style="clip-path:url(#clip-path-3)"><g style="clip-path:url(#clip-path-2)"><rect x="31.94" y="32.7" width="64.34" height="46.39" transform="translate(-20.75 61.71) rotate(-45)" style="fill:#010101"/></g></g><g style="clip-path:url(#clip-path-5)"><g style="clip-path:url(#clip-path-2)"><rect x="38.55" y="40.36" width="46.19" height="23.6" transform="translate(-18.82 58.86) rotate(-45)" style="fill:#010101"/></g></g></svg>