<svg id="Layer_1" data-name="Layer 1" xmlns="http://www.w3.org/2000/svg" xmlns:xlink="http://www.w3.org/1999/xlink" viewBox="0 0 120 120"><defs><clipPath id="clip-path"><path d="M75.78,75.12L78,75,44.53,41.57l-0.1,2.21c5.49-4.58,16.46-1.92,24.86,6.48S80.37,69.63,75.78,75.12ZM78.09,77c5.77-6.91,2.7-19.53-6.67-28.9s-22-12.43-28.9-6.67l-1.26,1,1.16,1.16L75.88,77.14,77,78.3Z" style="fill:none"/></clipPath><clipPath id="clip-path-2"><rect x="0.84" y="-1.21" width="120" height="120" style="fill:none"/></clipPath><clipPath id="clip-path-3"><path d="M85.13,84.91l1.06-1.06L85.13,82.8,36.34,34l-1.06-1.06L34.22,34c-13.6,13.6-13,35.65,1.13,49.78S71.53,98.52,85.13,84.91ZM83,82.79C70.6,95.2,50.45,94.66,37.46,81.67S23.93,48.53,36.34,36.12H34.22L83,84.91V82.79Z" style="fill:none"/></clipPath><clipPath id="clip-path-5"><path d="M43.93,79.57c-7.12-8-9.41-15.8-8.17-23.13a23.21,23.21,0,0,1,2.72-7.6,20.69,20.69,0,0,1,1.33-2.05c0.25-.34.43-0.56,0.52-0.66l-2.24-2c-0.15.17-.39,0.46-0.69,0.87a23.65,23.65,0,0,0-1.52,2.35,26.18,26.18,0,0,0-3.07,8.58c-1.4,8.23,1.16,16.92,8.88,25.62Z" style="fill:none"/></clipPath><clipPath id="clip-path-7"><path d="M95.63,42.36a5.22,5.22,0,0,0-1-.12,7.42,7.42,0,0,0-2.21.27,9.19,9.19,0,0,0-5.52,4.72l2.62,1.45a6.24,6.24,0,0,1,3.71-3.29,4.43,4.43,0,0,1,1.32-.17,2.6,2.6,0,0,1,.41,0Z" style="fill:none"/></clipPath><clipPath id="clip-path-9"><path d="M80.77,53.58a5.22,5.22,0,0,0,1,.12A7.42,7.42,0,0,0,84,53.42a9.19,9.19,0,0,0,5.52-4.72l-2.62-1.45a6.24,6.24,0,0,1-3.71,3.29,4.43,4.43,0,0,1-1.32.17,2.6,2.6,0,0,1-.41,0Z" style="fill:none"/></clipPath><clipPath id="clip-path-11"><path d="M86.72,33.45a5.22,5.22,0,0,0-1-.12,7.42,7.42,0,0,0-2.21.27A9.19,9.19,0,0,0,78,38.33l2.62,1.45a6.24,6.24,0,0,1,3.71-3.29,4.43,4.43,0,0,1,1.32-.17,2.6,2.6,0,0,1,.41,0Z" style="fill:none"/></clipPath><clipPath id="clip-path-13"><path d="M71.86,44.67a5.22,5.22,0,0,0,1,.12,7.42,7.42,0,0,0,2.21-.27,9.19,9.19,0,0,0,5.52-4.72L78,38.33a6.24,6.24,0,0,1-3.71,3.29,4.43,4.43,0,0,1-1.32.17,2.6,2.6,0,0,1-.41,0Z" style="fill:none"/></clipPath><clipPath id="clip-path-15"><path d="M78.63,25.36a5.22,5.22,0,0,0-1-.12,7.42,7.42,0,0,0-2.21.27,9.19,9.19,0,0,0-5.52,4.72l2.62,1.45a6.24,6.24,0,0,1,3.71-3.29,4.43,4.43,0,0,1,1.32-.17,2.6,2.6,0,0,1,.41,0Z" style="fill:none"/></clipPath><clipPath id="clip-path-17"><path d="M63.77,36.58a5.22,5.22,0,0,0,1,.12A7.42,7.42,0,0,0,67,36.42a9.19,9.19,0,0,0,5.52-4.72l-2.62-1.45a6.24,6.24,0,0,1-3.71,3.29,4.43,4.43,0,0,1-1.32.17,2.6,2.6,0,0,1-.41,0Z" style="fill:none"/></clipPath></defs><title>pattern--bowl</title><g style="clip-path:url(#clip-path)"><g style="clip-path:url(#clip-path-2)"><rect x="51.61" y="23.98" width="27.35" height="60.6" transform="translate(-19.26 62.06) rotate(-45)" style="fill:#010101"/></g></g><g style="clip-path:url(#clip-path-3)"><g style="clip-path:url(#clip-path-2)"><rect x="25.09" y="30.09" width="45.9" height="82" transform="translate(-36.2 54.79) rotate(-45)" style="fill:#010101"/></g></g><g style="clip-path:url(#clip-path-5)"><g style="clip-path:url(#clip-path-2)"><rect x="22.97" y="43.25" width="34.09" height="39.19" transform="translate(-32.72 46.7) rotate(-45)" style="fill:#010101"/></g></g><g style="clip-path:url(#clip-path-7)"><g style="clip-path:url(#clip-path-2)"><rect x="82.36" y="36.95" width="18.51" height="16.09" transform="translate(7.84 103.31) rotate(-61)" style="fill:#010101"/></g></g><g style="clip-path:url(#clip-path-9)"><g style="clip-path:url(#clip-path-2)"><rect x="75.53" y="42.89" width="18.51" height="16.09" transform="translate(-0.87 100.4) rotate(-61)" style="fill:#010101"/></g></g><g style="clip-path:url(#clip-path-11)"><g style="clip-path:url(#clip-path-2)"><rect x="73.45" y="28.04" width="18.51" height="16.09" transform="translate(11.04 90.93) rotate(-61)" style="fill:#010101"/></g></g><g style="clip-path:url(#clip-path-13)"><g style="clip-path:url(#clip-path-2)"><rect x="66.62" y="33.98" width="18.51" height="16.09" transform="translate(2.33 88.01) rotate(-61)" style="fill:#010101"/></g></g><g style="clip-path:url(#clip-path-15)"><g style="clip-path:url(#clip-path-2)"><rect x="65.36" y="19.95" width="18.51" height="16.09" transform="translate(13.95 79.68) rotate(-61)" style="fill:#010101"/></g></g><g style="clip-path:url(#clip-path-17)"><g style="clip-path:url(#clip-path-2)"><rect x="58.53" y="25.89" width="18.51" height="16.09" transform="translate(5.24 76.77) rotate(-61)" style="fill:#010101"/></g></g></svg>