<svg id="Layer_1" data-name="Layer 1" xmlns="http://www.w3.org/2000/svg" xmlns:xlink="http://www.w3.org/1999/xlink" viewBox="0 0 120 120"><defs><clipPath id="clip-path"><path d="M55.7,53.34l-0.27-.29-0.37-.12,0.12,0-0.28-.14-0.73-.38C53.37,52,52.51,51.56,51.61,51a38.05,38.05,0,0,1-6.39-4.83c-2.88-2.77-4.44-5.52-4.36-8.11,0.24-8.32,9.88-18.51,17.89-18.74,4.75-.14,10.63,4.07,16.14,10.1L75,29.48c7.37,7.23,13,15.1,15.5,23.19,3.28,10.45,1.17,20.41-7.65,29.75-12.3,13-24.45,15-36.16,9.19a44.09,44.09,0,0,1-14-11.28c-0.28-.34-0.53-0.65-0.73-0.91l-0.23-.31-2,2.13a18.13,18.13,0,0,0,2.53,1.32,24.29,24.29,0,0,0,6.4,1.82c7.17,1,14.14-1.36,20.18-8.2C65,69.12,63.06,61.17,55.7,53.34ZM53.51,55.4c6.43,6.84,8,13.17,3,18.8C51.19,80.26,45.22,82.27,39,81.41a21.31,21.31,0,0,1-5.61-1.6c-0.6-.26-1.12-0.52-1.58-0.78l-0.51-.3L24.5,74.27l4.78,6.61c0.2,0.27.56,0.75,1.09,1.38A47,47,0,0,0,45.3,94.3c12.88,6.39,26.46,4.17,39.68-9.82,9.58-10.14,11.93-21.24,8.33-32.71-2.71-8.64-8.57-16.89-16.26-24.43l0.06,0.06C71,20.74,64.61,16.15,58.67,16.32,49,16.6,38.15,28.11,37.86,38c-0.1,3.6,1.85,7.06,5.28,10.36A41,41,0,0,0,50,53.56c1,0.59,1.87,1.11,2.71,1.56l0.8,0.41,0.3,0.15,0.3,0.12,0.45-1.43Z" style="fill:none"/></clipPath><clipPath id="clip-path-2"><rect x="-1.72" y="0.19" width="120" height="120" style="fill:none"/></clipPath><clipPath id="clip-path-3"><path d="M62.75,30.49l-2.12-2.12-4.87,4.87,2.12,2.12Zm-2.12-2.12-4.87,4.87,2.12,2.12,4.87-4.87Z" style="fill:none"/></clipPath><clipPath id="clip-path-5"><path d="M57.41,41.64a5,5,0,0,1-1,.5,8.53,8.53,0,0,1-3.07.62c-3.72.08-7.9-1.9-12.46-6.84l-2.2,2c5.12,5.54,10.1,7.91,14.73,7.8a11.52,11.52,0,0,0,4.14-.85,7.74,7.74,0,0,0,1.62-.87Z" style="fill:none"/></clipPath><clipPath id="clip-path-7"><path d="M54.65,56.1l0.73,0c0.56,0,1.2-.1,1.91-0.19a52.32,52.32,0,0,0,6.35-1.15c7.64-1.88,14-5.25,17.85-10.55a19.73,19.73,0,0,0,3.46-7.88L82,35.7a16.73,16.73,0,0,1-2.94,6.7c-3.4,4.63-9.14,7.68-16.15,9.42a49.35,49.35,0,0,1-6,1.09c-0.66.08-1.26,0.13-1.77,0.17l-0.62,0Z" style="fill:none"/></clipPath><clipPath id="clip-path-9"><path d="M60.21,68.48l1,0.48c0.75,0.36,1.61.74,2.55,1.12a49.36,49.36,0,0,0,8.51,2.63c8.93,1.85,16.61.55,21.87-5.24l-2.22-2c-4.41,4.86-11,6-19,4.32a46.41,46.41,0,0,1-8-2.47c-0.89-.36-1.69-0.72-2.39-1.05l-0.64-.31-0.2-.11Z" style="fill:none"/></clipPath><clipPath id="clip-path-11"><path d="M50.84,79.75c0,0.28.06,0.77,0.15,1.42a27.24,27.24,0,0,0,.69,3.38c1.32,4.85,3.77,8.79,7.73,10.94a13.63,13.63,0,0,0,5.76,1.59l0.18-3a10.64,10.64,0,0,1-4.5-1.23c-3.11-1.68-5.14-5-6.27-9.09a24.26,24.26,0,0,1-.62-3c0-.33-0.08-0.62-0.1-0.88s0-.24,0-0.29Z" style="fill:none"/></clipPath><clipPath id="clip-path-13"><path d="M47,69.33a13.76,13.76,0,0,0,1.4.86,16.55,16.55,0,0,0,3.42,1.42c3.76,1.06,7.27.45,10-2.51l-2.22-2c-1.84,2-4.19,2.42-6.94,1.64a13.6,13.6,0,0,1-2.8-1.16c-0.31-.17-0.58-0.33-0.82-0.48l-0.26-.17Z" style="fill:none"/></clipPath><clipPath id="clip-path-15"><path d="M44.85,60.88a13.76,13.76,0,0,0,1.4.86,16.55,16.55,0,0,0,3.42,1.42c3.76,1.06,7.27.45,10-2.51l-2.22-2c-1.84,2-4.19,2.42-6.94,1.64a13.6,13.6,0,0,1-2.8-1.16c-0.31-.17-0.58-0.33-0.82-0.48l-0.26-.17Z" style="fill:none"/></clipPath><clipPath id="clip-path-17"><path d="M27.05,73a2.77,2.77,0,0,1,5.34-1.43,9.55,9.55,0,0,1-.09,3.86c-0.3,1.36-.79,2.18-1.13,2.27s-1.18-.37-2.12-1.4A9.55,9.55,0,0,1,27.05,73Zm-2.9.78c0.92,3.42,4.75,7.64,7.8,6.82s4.26-6.38,3.34-9.81A5.77,5.77,0,0,0,24.15,73.77Z" style="fill:none"/></clipPath><clipPath id="clip-path-19"><path d="M37.42,72.54a2.77,2.77,0,0,1,3.91,3.91,9.55,9.55,0,0,1-3.39,1.86c-1.32.42-2.28,0.4-2.53,0.15s-0.27-1.21.15-2.53A9.55,9.55,0,0,1,37.42,72.54ZM35.3,70.42c-2.51,2.51-4.24,7.93-2,10.16s7.66,0.5,10.16-2A5.77,5.77,0,0,0,35.3,70.42Z" style="fill:none"/></clipPath></defs><title>pattern--shrimp</title><g style="clip-path:url(#clip-path)"><g style="clip-path:url(#clip-path-2)"><rect x="17.79" y="19.27" width="82.12" height="81.56" transform="translate(-25.22 59.2) rotate(-45)" style="fill:#010101"/></g></g><g style="clip-path:url(#clip-path-3)"><g style="clip-path:url(#clip-path-2)"><rect x="50.81" y="25.36" width="16.89" height="13" transform="translate(-5.17 51.23) rotate(-45)" style="fill:#010101"/></g></g><g style="clip-path:url(#clip-path-5)"><g style="clip-path:url(#clip-path-2)"><rect x="38.77" y="26.47" width="20.65" height="28.8" transform="translate(-14.52 46.69) rotate(-45)" style="fill:#010101"/></g></g><g style="clip-path:url(#clip-path-7)"><g style="clip-path:url(#clip-path-2)"><rect x="47.5" y="35.12" width="45.43" height="22.98" transform="translate(-12.39 63.3) rotate(-45)" style="fill:#010101"/></g></g><g style="clip-path:url(#clip-path-9)"><g style="clip-path:url(#clip-path-2)"><rect x="59.51" y="50.6" width="34.69" height="34.14" transform="translate(-25.34 74.16) rotate(-45)" style="fill:#010101"/></g></g><g style="clip-path:url(#clip-path-11)"><g style="clip-path:url(#clip-path-2)"><rect x="48.65" y="72.66" width="17.84" height="32.38" transform="translate(-45.97 66.73) rotate(-45)" style="fill:#010101"/></g></g><g style="clip-path:url(#clip-path-13)"><g style="clip-path:url(#clip-path-2)"><rect x="43.93" y="58.66" width="20.62" height="20.78" transform="translate(-32.94 58.58) rotate(-45)" style="fill:#010101"/></g></g><g style="clip-path:url(#clip-path-15)"><g style="clip-path:url(#clip-path-2)"><rect x="41.77" y="50.22" width="20.62" height="20.78" transform="translate(-27.6 54.58) rotate(-45)" style="fill:#010101"/></g></g><g style="clip-path:url(#clip-path-17)"><g style="clip-path:url(#clip-path-2)"><rect x="18.6" y="61.88" width="22.78" height="22.78" transform="matrix(0.5, -0.87, 0.87, 0.5, -48.46, 62.6)" style="fill:#010101"/></g></g><g style="clip-path:url(#clip-path-19)"><g style="clip-path:url(#clip-path-2)"><rect x="26.62" y="64.88" width="24" height="21.62" transform="translate(-46.25 71.29) rotate(-60)" style="fill:#010101"/></g></g></svg>