<svg id="Layer_1" data-name="Layer 1" xmlns="http://www.w3.org/2000/svg" xmlns:xlink="http://www.w3.org/1999/xlink" viewBox="0 0 120 120"><defs><clipPath id="clip-path"><path d="M53.91,55.88l0.44-1L30.76,78.47,31.9,78l-9.6-.58-3.93-.24L21.16,80,40.25,99.11,43,101.9,42.8,98,42.17,87.56,41.74,88.7,65,65.4l-1,.44c9.61-.21,18.39-0.68,25-1.48a42.81,42.81,0,0,0,9.47-1.92,5.18,5.18,0,0,0,2.72-1.91,2.68,2.68,0,0,0-.61-3.43L86.26,42.71l-4.45-4.45L62.45,18.91a2.32,2.32,0,0,0-3.38-.14,6.54,6.54,0,0,0-1.53,2.82,55.35,55.35,0,0,0-1.81,9.56C54.92,37.79,54.32,46.46,53.91,55.88Zm3,0.14c0.41-9.34,1-17.95,1.81-24.5a53.21,53.21,0,0,1,1.68-9A4.72,4.72,0,0,1,61.11,21a0.78,0.78,0,0,1-.77.06L79.69,40.38l4.45,4.45L98.52,59.21c0.1,0.1.13,0.15,0.12,0.11a0.53,0.53,0,0,1,0-.36,1.15,1.15,0,0,1-.26.21,5.54,5.54,0,0,1-1,.47,40.74,40.74,0,0,1-8.75,1.74c-6.53.78-15.23,1.24-24.75,1.45h-0.6l-0.42.42-23.3,23.3-0.48.48,0,0.67,0.63,10.41L42.36,97,23.27,77.9l-1.14,2.55L31.73,81l0.67,0,0.48-.48L56.46,57l0.41-.41Z" style="fill:none"/></clipPath><clipPath id="clip-path-2"><rect x="-3" y="5.55" width="120" height="120" style="fill:none"/></clipPath><clipPath id="clip-path-3"><path d="M83.73,59.08a10,10,0,0,0,0-1.76,14.06,14.06,0,0,0-1-3.95c-1.58-3.8-4.74-6.84-9.79-8.58l-1,2.84c4.23,1.46,6.74,3.88,8,6.9a11.08,11.08,0,0,1,.79,3.11,9,9,0,0,1,.05.93c0,0.15,0,.24,0,0.27Z" style="fill:none"/></clipPath><clipPath id="clip-path-5"><path d="M61.07,33.34a10,10,0,0,0,0,1.76,14.06,14.06,0,0,0,1,3.95c1.58,3.8,4.74,6.84,9.79,8.58l1-2.84c-4.23-1.46-6.74-3.88-8-6.9a11.08,11.08,0,0,1-.79-3.11A9,9,0,0,1,64,33.86c0-.15,0-0.24,0-0.27Z" style="fill:none"/></clipPath><clipPath id="clip-path-7"><path d="M73.15,58.92a5.63,5.63,0,0,0,0-1,7.67,7.67,0,0,0-.55-2.16,8.31,8.31,0,0,0-5.27-4.65l-1,2.84a5.35,5.35,0,0,1,3.48,3,4.69,4.69,0,0,1,.33,1.31,3.67,3.67,0,0,1,0,.38c0,0.05,0,.08,0,0.07Z" style="fill:none"/></clipPath><clipPath id="clip-path-9"><path d="M60.49,46.14a5.63,5.63,0,0,0,0,1,7.67,7.67,0,0,0,.55,2.16,8.31,8.31,0,0,0,5.27,4.65l1-2.84a5.35,5.35,0,0,1-3.48-3,4.69,4.69,0,0,1-.33-1.31,3.67,3.67,0,0,1,0-.38c0-.05,0-0.08,0-0.07Z" style="fill:none"/></clipPath></defs><title>icon--martini</title><g style="clip-path:url(#clip-path)"><g style="clip-path:url(#clip-path-2)"><rect x="14.9" y="29.04" width="82.41" height="69.44" transform="translate(-28.65 58.35) rotate(-45)" style="fill:#010101"/></g></g><g style="clip-path:url(#clip-path-3)"><g style="clip-path:url(#clip-path-2)"><rect x="67.83" y="39.83" width="20.72" height="24.9" transform="translate(3.3 109.19) rotate(-71)" style="fill:#010101"/></g></g><g style="clip-path:url(#clip-path-5)"><g style="clip-path:url(#clip-path-2)"><rect x="56.25" y="27.68" width="20.72" height="24.9" transform="translate(6.97 90.05) rotate(-71)" style="fill:#010101"/></g></g><g style="clip-path:url(#clip-path-7)"><g style="clip-path:url(#clip-path-2)"><rect x="62" y="46.33" width="16.22" height="18.07" transform="translate(-5.07 103.63) rotate(-71)" style="fill:#010101"/></g></g><g style="clip-path:url(#clip-path-9)"><g style="clip-path:url(#clip-path-2)"><rect x="55.42" y="40.66" width="16.22" height="18.07" transform="translate(-4.14 93.58) rotate(-71)" style="fill:#010101"/></g></g></svg>