<svg id="Layer_1" data-name="Layer 1" xmlns="http://www.w3.org/2000/svg" xmlns:xlink="http://www.w3.org/1999/xlink" viewBox="0 0 120 120"><defs><clipPath id="clip-path"><path d="M51,27.75l-1.32-1.32-1,1.56-0.1.15-0.27.43-1,1.64c-1.1,1.77-2.31,3.76-3.6,5.93-3.67,6.18-7.2,12.51-10.3,18.62C24.13,72.91,20.49,85.25,25.23,90s17.08,1.11,35.23-8.1c6.11-3.1,12.43-6.63,18.62-10.3,2.16-1.29,4.15-2.5,5.93-3.6l1.64-1,0.43-.27,0.15-.1,1.56-1-1.32-1.32Zm-2.12,2.12L85.36,66.38l0.24-2.32-0.14.09L85,64.42l-1.62,1c-1.76,1.09-3.73,2.29-5.88,3.57-6.13,3.64-12.4,7.14-18.44,10.21-16.57,8.4-28.49,11.91-31.74,8.67S27.61,72.71,36,56.14c3.06-6,6.56-12.31,10.21-18.44,1.28-2.15,2.48-4.12,3.57-5.88l1-1.62,0.27-.42,0.09-.14Z" style="fill:none"/></clipPath><clipPath id="clip-path-2"><rect x="-9.46" y="5.11" width="120" height="120" style="fill:none"/></clipPath><clipPath id="clip-path-3"><path d="M93.55,55.88L59.81,22.14a6.31,6.31,0,0,0-8.93,0l-0.47.47a6.31,6.31,0,0,0,0,8.93L84.2,65.23a6.31,6.31,0,0,0,8.93,0l0.47-.47A6.31,6.31,0,0,0,93.55,55.88ZM91.44,58a3.31,3.31,0,0,1,0,4.67L91,63.14a3.31,3.31,0,0,1-4.67,0L52.58,29.38a3.31,3.31,0,0,1,0-4.67L53,24.24a3.31,3.31,0,0,1,4.67,0Z" style="fill:none"/></clipPath><clipPath id="clip-path-5"><path d="M44,58.84a3.59,3.59,0,1,1,5.1,0A3.61,3.61,0,0,1,44,58.84ZM41.89,61a6.58,6.58,0,1,0,0-9.35A6.61,6.61,0,0,0,41.89,61Z" style="fill:none"/></clipPath><clipPath id="clip-path-7"><path d="M63.57,62.33a3.59,3.59,0,1,1,5.1,0A3.61,3.61,0,0,1,63.57,62.33Zm-2.12,2.12a6.58,6.58,0,1,0,0-9.35A6.61,6.61,0,0,0,61.46,64.45Z" style="fill:none"/></clipPath><clipPath id="clip-path-9"><path d="M39.42,77.94a3.59,3.59,0,1,1,5.1,0A3.61,3.61,0,0,1,39.42,77.94ZM37.3,80.06a6.58,6.58,0,1,0,0-9.35A6.61,6.61,0,0,0,37.3,80.06Z" style="fill:none"/></clipPath></defs><title>pattern--pizza</title><g style="clip-path:url(#clip-path)"><g style="clip-path:url(#clip-path-2)"><rect x="11.12" y="35.31" width="72.2" height="65.38" transform="translate(-34.25 53.31) rotate(-45)" style="fill:#010101"/></g></g><g style="clip-path:url(#clip-path-3)"><g style="clip-path:url(#clip-path-2)"><rect x="60.4" y="8.49" width="23.22" height="70.4" transform="translate(-9.8 63.71) rotate(-45)" style="fill:#010101"/></g></g><g style="clip-path:url(#clip-path-5)"><g style="clip-path:url(#clip-path-2)"><rect x="34.96" y="44.66" width="23.16" height="23.29" transform="translate(-26.18 49.4) rotate(-45)" style="fill:#010101"/></g></g><g style="clip-path:url(#clip-path-7)"><g style="clip-path:url(#clip-path-2)"><rect x="54.53" y="48.15" width="23.16" height="23.29" transform="translate(-22.91 64.26) rotate(-45)" style="fill:#010101"/></g></g><g style="clip-path:url(#clip-path-9)"><g style="clip-path:url(#clip-path-2)"><rect x="30.37" y="63.76" width="23.16" height="23.29" transform="translate(-41.03 51.75) rotate(-45)" style="fill:#010101"/></g></g></svg>